<?xml version="1.0" encoding="utf-8"?>
<!-- Generator: Adobe Illustrator 24.0.1, SVG Export Plug-In . SVG Version: 6.00 Build 0)  -->
<svg version="1.1" id="Layer_1" xmlns="http://www.w3.org/2000/svg" xmlns:xlink="http://www.w3.org/1999/xlink" x="0px" y="0px"
	 width="6px" height="12px" viewBox="0 0 6 12" style="enable-background:new 0 0 6 12;" xml:space="preserve">
<style type="text/css">
	.st0{enable-background:new    ;}
	.st1{fill:#8F8E8E;}
</style>
<title>$</title>
<desc>Created with Sketch.</desc>
<g id="Page-1">
	<g id="_x32_019_x5F_Q4_x5F_MOCK-Home-Desktop_x5F_05" transform="translate(-614.000000, -232.000000)">
		<g id="HERO" transform="translate(-2.000000, 98.000000)">
			<g id="Field-Est" transform="translate(597.000000, 112.000000)">
				<g class="st0">
					<path class="st1" d="M23.8,30.2c0-0.4-0.1-0.7-0.4-0.9s-0.7-0.5-1.3-0.7c-0.8-0.3-1.4-0.6-1.8-1s-0.6-0.9-0.6-1.6
						c0-0.6,0.2-1.2,0.6-1.6s0.9-0.7,1.5-0.7v-1.3h0.9v1.3c0.7,0.1,1.2,0.4,1.5,0.8s0.5,1.1,0.5,1.9h-1.1c0-0.6-0.1-1-0.4-1.3
						s-0.6-0.5-1.1-0.5c-0.5,0-0.8,0.1-1.1,0.4c-0.2,0.2-0.4,0.6-0.4,1c0,0.4,0.1,0.7,0.4,1c0.3,0.2,0.7,0.5,1.3,0.6
						c0.6,0.2,1.1,0.4,1.4,0.6s0.6,0.5,0.7,0.8s0.2,0.7,0.2,1.1c0,0.7-0.2,1.2-0.6,1.6s-1,0.6-1.7,0.7v1.1h-0.9v-1.1
						c-0.7-0.1-1.3-0.3-1.7-0.8s-0.6-1.1-0.6-1.8h1.1c0,0.5,0.1,1,0.4,1.3s0.7,0.4,1.2,0.4c0.5,0,0.9-0.1,1.2-0.4
						S23.8,30.7,23.8,30.2z"/>
				</g>
			</g>
		</g>
	</g>
</g>
</svg>
