<?xml version="1.0" encoding="UTF-8"?>
<svg width="91px" height="90px" viewBox="0 0 91 90" version="1.1" xmlns="http://www.w3.org/2000/svg" xmlns:xlink="http://www.w3.org/1999/xlink">
    <!-- Generator: Sketch 61.2 (89653) - https://sketch.com -->
    <title>ICON-CMYK_Heart_01</title>
    <desc>Created with Sketch.</desc>
    <g id="Page-1" stroke="none" stroke-width="1" fill="none" fill-rule="evenodd">
        <g id="2019_Q4_MOCK-Home-Desktop_05" transform="translate(-37.000000, -164.000000)" fill-rule="nonzero">
            <g id="HERO" transform="translate(-2.000000, 98.000000)">
                <g id="ICON-CMYK_Heart_01" transform="translate(39.000000, 66.000000)">
                    <path d="M70.8295293,38.2402658 C69.9598038,32.6911962 65.4684524,28.1432169 59.9259969,27.2000533 C53.6000452,26.1246983 47.9683871,29.4948371 45.4989615,34.6621854 C43.029536,29.4948371 37.3978779,26.1246983 31.0719261,27.2015386 C25.5294707,28.1447022 21.039606,32.6926815 20.1698805,38.2432364 C19.4577464,42.7912158 21.0366326,46.9975768 23.9297705,49.8894501 L43.0414297,68.9829429 C44.398796,70.339019 46.5976404,70.339019 47.9550067,68.9829429 L67.0666658,49.8894501 C69.9642639,46.9960916 71.5431501,42.7882452 70.8295293,38.2402658 Z" id="Path" fill="#F05B89"></path>
                    <path d="M45.5,10 C44.672,10 44,9.3653492 44,8.58336875 L44,1.41663125 C44,0.6346508 44.672,0 45.5,0 C46.328,0 47,0.6346508 47,1.41663125 L47,8.58336875 C47,9.3653492 46.328,10 45.5,10 Z" id="Path" fill="#799ACF"></path>
                    <path d="M45.5,90 C44.672,90 44,89.3667658 44,88.5833687 L44,81.4166313 C44,80.6332342 44.672,80 45.5,80 C46.328,80 47,80.6332342 47,81.4166313 L47,88.5833687 C47,89.3653492 46.328,90 45.5,90 Z" id="Path" fill="#799ACF"></path>
                    <path d="M89.5835694,47 L82.4164306,47 C81.6331445,47 81,46.3295 81,45.5 C81,44.672 81.6331445,44 82.4164306,44 L89.5835694,44 C90.3668555,44 91,44.672 91,45.5 C91,46.3295 90.3668555,47 89.5835694,47 Z" id="Path" fill="#799ACF"></path>
                    <path d="M8.58336875,47 L1.41663125,47 C0.6346508,47 0,46.3295 0,45.5 C0,44.672 0.6346508,44 1.41663125,44 L8.58336875,44 C9.3653492,44 10,44.672 10,45.5 C10,46.3295 9.3653492,47 8.58336875,47 Z" id="Path" fill="#799ACF"></path>
                    <path d="M19.565307,21 C19.1981174,21 18.8309278,20.8594541 18.5512326,20.5797965 L13.4206186,15.4484381 C12.8597938,14.8876888 12.8597938,13.9798772 13.4206186,13.420562 C13.9814433,12.8598127 14.8879426,12.8598127 15.4487674,13.420562 L20.5793814,18.5519204 C21.1402062,19.1126697 21.1402062,20.0204813 20.5793814,20.5797965 C20.2996862,20.8594541 19.9324966,21 19.565307,21 Z" id="Path" fill="#799ACF"></path>
                    <path d="M76.565307,78 C76.1981174,78 75.8309278,77.8594289 75.5512326,77.5797212 L70.4206186,72.4488771 C69.8597938,71.8880273 69.8597938,70.9814873 70.4206186,70.4206374 C70.9814433,69.8597875 71.8879426,69.8597875 72.4487674,70.4206374 L77.5793814,75.5514815 C78.1402062,76.1123313 78.1402062,77.0188713 77.5793814,77.5797212 C77.2996862,77.8608633 76.9324966,78 76.565307,78 Z" id="Path" fill="#799ACF"></path>
                    <path d="M71.434693,21 C71.0675034,21 70.7003138,20.8594541 70.4206186,20.5797965 C69.8597938,20.0204813 69.8597938,19.1126697 70.4206186,18.5519204 L75.5512326,13.420562 C76.1120574,12.8598127 77.0185567,12.8598127 77.5793814,13.420562 C78.1402062,13.9798772 78.1402062,14.8876888 77.5793814,15.4484381 L72.4487674,20.5797965 C72.1676378,20.8594541 71.8018826,21 71.434693,21 Z" id="Path" fill="#799ACF"></path>
                    <path d="M14.434693,78 C14.0675034,78 13.7003138,77.8594289 13.4206186,77.5797212 C12.8597938,77.0188713 12.8597938,76.1123313 13.4206186,75.5514815 L18.5512326,70.4206374 C19.1120574,69.8597875 20.0185567,69.8597875 20.5793814,70.4206374 C21.1402062,70.9814873 21.1402062,71.8880273 20.5793814,72.4488771 L15.4487674,77.5797212 C15.1690722,77.8608633 14.8018826,78 14.434693,78 Z" id="Path" fill="#799ACF"></path>
                    <path d="M31.4754361,13 C30.8764212,13 30.3094148,12.6509484 30.0670653,12.0741894 L27.1161932,5.07218529 C26.7945847,4.30816686 27.1634437,3.43179279 27.9407912,3.11420082 C28.7211871,2.79810692 29.609802,3.16064115 29.9329347,3.92465958 L32.8838068,10.9266637 C33.2054153,11.6906822 32.8365563,12.5670562 32.0592088,12.8846482 C31.865634,12.9625481 31.6690108,13 31.4754361,13 Z" id="Path" fill="#799ACF"></path>
                    <path d="M62.4754361,87 C61.8779454,87 61.3094148,86.6523797 61.0670653,86.0755098 L58.1161932,79.0721597 C57.7945847,78.306496 58.1634437,77.4299535 58.9407912,77.1137988 C59.7166145,76.7991425 60.6113262,77.1587497 60.9329347,77.9244134 L63.8838068,84.9277635 C64.2054153,85.6934272 63.8365563,86.5699697 63.0592088,86.8861244 C62.8686824,86.9640393 62.670535,87 62.4754361,87 Z" id="Path" fill="#799ACF"></path>
                    <path d="M79.4985949,33 C78.9112818,33 78.3524354,32.6448904 78.114214,32.0581213 C77.7980837,31.2808428 78.1606596,30.3892586 78.924766,30.0661546 L85.9275762,27.1155443 C86.6886861,26.7954884 87.5696558,27.1627906 87.885786,27.9400692 C88.2019163,28.7173477 87.8393404,29.6089319 87.075234,29.9320359 L80.0724238,32.8826462 C79.8836446,32.9634222 79.6903706,33 79.4985949,33 Z" id="Path" fill="#799ACF"></path>
                    <path d="M5.49859492,63 C4.90978354,63 4.35243536,62.6464897 4.11421396,62.0598455 C3.79808368,61.2827324 4.16065964,60.3898143 4.92476602,60.0683028 L11.9275762,57.1167968 C12.6901843,56.7937615 13.5681575,57.1640331 13.885786,57.9411462 C14.2019163,58.719783 13.8393404,59.6111774 13.075234,59.9326889 L6.07242382,62.8841949 C5.88514285,62.96343 5.69037064,63 5.49859492,63 Z" id="Path" fill="#799ACF"></path>
                    <path d="M12.4999068,33 C12.3096294,33 12.1148572,32.9619035 11.9275762,32.8826627 L4.92476602,29.9324686 C4.16065964,29.610934 3.79808368,28.7194755 4.11421396,27.9407827 C4.43034425,27.16209 5.30532095,26.7948396 6.07242382,27.1163742 L13.075234,30.0665683 C13.8393404,30.3881029 14.2019163,31.2795614 13.885786,32.0582541 C13.6460664,32.6464643 13.0887182,33 12.4999068,33 Z" id="Path" fill="#799ACF"></path>
                    <path d="M86.5014051,63 C86.3096294,63 86.1148572,62.9634222 85.9275762,62.8841703 L78.924766,59.9320359 C78.1606596,59.610456 77.7980837,58.7188718 78.114214,57.9400692 C78.4303442,57.1627906 79.3113139,56.7954884 80.0724238,57.1155443 L87.075234,60.0676786 C87.8393404,60.3892586 88.2019163,61.2823668 87.885786,62.0596454 C87.6460664,62.6464145 87.08722,63 86.5014051,63 Z" id="Path" fill="#799ACF"></path>
                    <path d="M59.5245639,13 C59.329465,13 59.1313176,12.9625465 58.9407912,12.8846433 C58.1634437,12.568536 57.7945847,11.6921248 58.1161932,10.9265758 L61.0670653,3.9242749 C61.3886738,3.15872595 62.2864339,2.79917263 63.0592088,3.11378178 C63.8365563,3.42988908 64.2054153,4.3063003 63.8838068,5.07184925 L60.9329347,12.0741502 C60.6905852,12.6509336 60.1220546,13 59.5245639,13 Z" id="Path" fill="#799ACF"></path>
                    <path d="M28.5230397,87 C28.329465,87 28.1313176,86.9640408 27.9407912,86.8861292 C27.1634437,86.569988 26.7945847,85.6934826 27.1161932,84.9278514 L30.0670653,77.9247981 C30.3886738,77.1606652 31.2772886,76.7980767 32.0592088,77.1142179 C32.8365563,77.4303592 33.2054153,78.3068646 32.8838068,79.0724958 L29.9329347,86.075549 C29.6875368,86.6508961 29.1205304,87 28.5230397,87 Z" id="Path" fill="#799ACF"></path>
                </g>
            </g>
        </g>
    </g>
</svg>