<?xml version="1.0" encoding="utf-8"?>
<!-- Generator: Adobe Illustrator 24.0.1, SVG Export Plug-In . SVG Version: 6.00 Build 0)  -->
<svg version="1.1" id="Layer_1" xmlns="http://www.w3.org/2000/svg" xmlns:xlink="http://www.w3.org/1999/xlink" x="0px" y="0px"
	 width="66px" height="77px" viewBox="0 0 66 77" style="enable-background:new 0 0 66 77;" xml:space="preserve">
<style type="text/css">
	.st0{fill:#A4C8E5;}
	.st1{fill:#255DA8;}
	.st2{fill:#FADA8F;}
	.st3{fill:#F26A58;}
</style>
<title>ICON-CMYK_Friendly_01</title>
<desc>Created with Sketch.</desc>
<g id="Page-1">
	<g id="_x32_019_x5F_Q4_x5F_MOCK-Home-Desktop_x5F_05" transform="translate(-723.000000, -1114.000000)">
		<g id="BLOCK-WHY-SCRATCHPAY" transform="translate(1.000000, 936.000000)">
			<g id="ICON-friendly" transform="translate(654.000000, 178.000000)">
				<g id="ICON-CMYK_Friendly_01" transform="translate(68.000000, 0.000000)">
					<g id="BASE" transform="translate(2.310000, 9.470000)">
						<path id="Path" class="st0" d="M7.9,40.2L7.8,66.4l11.4-0.2l-0.1-41.8l5.3-1.6L21.5,20l-5.1-1.8c0,0-2.3,1.6-7.4-0.4l-3.3,1.4
							l-5.7,8l3.7,2.5l4.4-4.1l0.2,8L7.9,40.2z"/>
						<rect id="Rectangle" x="25.5" y="40" class="st0" width="11.3" height="26.1"/>
						<rect id="Rectangle_1_" x="42.5" y="39.8" class="st0" width="10.9" height="27.3"/>
					</g>
					<g id="OUTLINE">
						<path id="Path_1_" class="st1" d="M55.7,77H50c-0.5,0-1-0.4-1-1V52.7c0-0.5,0.4-1,1-1c0.5,0,1,0.4,1,1V75h3.8V48.1
							c0-0.5,0.6,0.6,1.1,0.6s0.8,0.4,0.8,1V76C56.7,76.6,56.3,77,55.7,77z"/>
						<path id="Path_2_" class="st1" d="M15.8,77h-6c-0.6,0-1-0.5-1-1V46.9c0-0.6,0.4-1,1-1s1,0.5,1,1V75h4V51.7c0-0.6,0.4-1,1-1
							c0.6,0,1,0.5,1,1V76C16.8,76.5,16.4,77,15.8,77z"/>
						<ellipse id="Oval" class="st2" cx="15.8" cy="23.7" rx="4.8" ry="4.9"/>
						<ellipse id="Oval_1_" class="st2" cx="32.9" cy="23.7" rx="4.8" ry="4.9"/>
						<ellipse id="Oval_2_" class="st2" cx="50.1" cy="23.7" rx="4.8" ry="4.9"/>
						<path id="Path_3_" class="st3" d="M19.8,27.5c0.3-0.2,6.7-1.7,10.4,0.3c0,0,3.2,2,7.1-0.9c0.1-0.1,6.6-1.4,9.1,0.7l-3.9,2.2
							l-3.2,2.3l-0.1,17.7H26.7V32.6L19.8,27.5z"/>
						<path id="Path_4_" class="st0" d="M46.3,27.5l-4.8,2.3L39.3,33l4.6,1.1l0.5,15.7h10.5v-1.1c0,0,2.9,0,3.4-0.5
							c0.9-0.9,2.1-2.2,2.3-2.4c0.3-0.3,4.7-5.9,4.7-5.9l-0.8-2.3l-6.6-8.7l-4.2-1.2C53.4,27.7,51.3,30.2,46.3,27.5z"/>
						<path id="Path_5_" class="st2" d="M4.9,33l3.4,3.3l-2.6,3.6l5.2,7.1l-0.8,1.8c0,0-2.4,0.6-2.7,0.1C7.2,48.4,1,40.8,1,40.8
							l0.3-2.4L4.9,33z"/>
						<path id="Path_6_" class="st2" d="M61.7,34.4l-3.1,3.1l1.5,2.6l-4.9,6.2v2.1l2.1,0.7l1.6-0.8c0,0,6.3-8.2,6.2-8.3
							c0-0.1-1-2.2-0.8-2.3C64.4,37.6,61.7,34.4,61.7,34.4z"/>
						<g id="Group">
							<path id="Shape" class="st1" d="M33,29.8c-3.2,0-5.8-2.6-5.8-5.9c0-3.2,2.6-5.9,5.8-5.9s5.8,2.6,5.8,5.9S36.2,29.8,33,29.8z
								 M33,20.1c-2.1,0-3.8,1.7-3.8,3.9s1.7,3.9,3.8,3.9s3.8-1.7,3.8-3.9S35.2,20.1,33,20.1z"/>
							<path id="Shape_1_" class="st1" d="M50.3,29.8c-3.2,0-5.8-2.6-5.8-5.9c0-3.2,2.6-5.9,5.8-5.9s5.8,2.6,5.8,5.9
								S53.5,29.8,50.3,29.8z M50.3,20.1c-2.1,0-3.8,1.7-3.8,3.9s1.7,3.9,3.8,3.9s3.8-1.7,3.8-3.9S52.4,20.1,50.3,20.1z"/>
							<path id="Shape_2_" class="st1" d="M57.1,50.4c-0.1,0-0.3,0-0.4,0c-0.9-0.1-1.7-0.6-2.2-1.4c-0.7-1.1-0.6-2.5,0.2-3.4V34.1
								c0-0.4,0.3-0.8,0.6-0.9s0.8,0,1.1,0.3l4.8,5.6c0.3,0.4,0.3,0.9,0,1.3l-4.8,6.2l-0.1,0.1C56,47,56,47.5,56.2,47.9
								c0.2,0.3,0.4,0.4,0.7,0.5c0.3,0,0.6-0.1,0.8-0.3l5.6-7.1c0.7-0.8,0.7-2,0.1-2.9l-6.2-8c-0.4-0.5-1-0.9-1.6-1.1l-2.2-0.6
								c-0.5-0.2-0.8-0.7-0.7-1.2s0.7-0.8,1.2-0.7l2.2,0.6c1.1,0.3,2,0.9,2.6,1.8l6.3,8l0,0c1.2,1.6,1.1,3.8-0.1,5.4l-5.7,7.1
								l-0.1,0.1C58.6,50.1,57.9,50.4,57.1,50.4z M56.7,36.8V43l2.5-3.3L56.7,36.8z"/>
							<path id="Path_7_" class="st1" d="M44.3,50c-0.5,0-1-0.4-1-1V32.9c0-0.6,0.4-1,1-1c0.5,0,1,0.4,1,1V49
								C45.3,49.5,44.8,50,44.3,50z"/>
							<path id="Path_8_" class="st1" d="M36.7,28.1c-0.4,0-0.8-0.3-1-0.7c-0.1-0.5,0.2-1.1,0.7-1.2l1.3-0.3c2-0.5,4-0.7,6.1-0.4
								l2.5,0.3c0.5,0.1,0.9,0.6,0.8,1.1c-0.1,0.5-0.6,0.9-1.1,0.9l-2.5-0.3c-1.8-0.2-3.6-0.1-5.3,0.3L37,28.1
								C36.9,28.1,36.8,28.1,36.7,28.1z"/>
							<path id="Path_9_" class="st1" d="M39,50c-0.5,0-1-0.4-1-1V32.1c0-0.3,0.2-0.7,0.4-0.8l3.8-2.5c0.1,0,0.1-0.1,0.2-0.1
								l4.2-1.6c0.5-0.2,1.1,0.1,1.3,0.6s-0.1,1.1-0.6,1.3l-4.1,1.5L40,32.6V49C40,49.5,39.6,50,39,50z"/>
							<path id="Path_10_" class="st1" d="M44.2,34.9c-0.1,0-0.1,0-0.2,0l-5.2-1c-0.5-0.1-0.9-0.6-0.8-1.2c0.1-0.5,0.6-0.9,1.1-0.8
								l5.2,1c0.5,0.1,0.9,0.6,0.8,1.2C45.1,34.5,44.7,34.9,44.2,34.9z"/>
							<path id="Shape_3_" class="st1" d="M15.8,29.8c-3.2,0-5.8-2.6-5.8-5.9c0-3.2,2.6-5.9,5.8-5.9s5.8,2.6,5.8,5.9
								S19,29.8,15.8,29.8z M15.8,20.1c-2.1,0-3.8,1.7-3.8,3.9s1.7,3.9,3.8,3.9s3.8-1.7,3.8-3.9S17.9,20.1,15.8,20.1z"/>
							<path id="Shape_4_" class="st1" d="M9,50.4c-0.8,0-1.5-0.3-2.1-0.9l-0.1-0.1l-5.7-7.1c-1.2-1.6-1.3-3.8-0.1-5.4l0,0l6.3-8
								C8,28,8.9,27.4,9.9,27.1l2.2-0.6c0.5-0.2,1.1,0.2,1.2,0.7c0.1,0.5-0.2,1.1-0.7,1.2L10.4,29c-0.7,0.2-1.2,0.6-1.6,1.1l-6.2,8
								c-0.6,1-0.6,2.1,0.1,3l5.6,7.1c0.2,0.2,0.5,0.3,0.8,0.3s0.6-0.2,0.7-0.5c0.2-0.4,0.2-0.9-0.2-1.3l-0.1-0.1l-4.8-6.2
								c-0.3-0.4-0.3-0.9,0-1.3l4.8-5.6c0.3-0.3,0.7-0.4,1.1-0.3c0.4,0.1,0.6,0.5,0.6,0.9v11.4c0.8,1,0.9,2.4,0.2,3.4
								c-0.5,0.8-1.3,1.3-2.2,1.4C9.3,50.4,9.1,50.4,9,50.4z M6.9,39.7L9.4,43v-6.2L6.9,39.7z"/>
							<path id="Path_11_" class="st1" d="M21.8,50c-0.5,0-1-0.4-1-1V32.9c0-0.6,0.4-1,1-1c0.5,0,1,0.4,1,1V49
								C22.8,49.5,22.3,50,21.8,50z"/>
							<path id="Path_12_" class="st1" d="M29.4,28.1c-0.1,0-0.2,0-0.3,0l-1.3-0.3c-1.7-0.5-3.5-0.6-5.3-0.3L20,27.8
								c-0.5,0.1-1-0.3-1.1-0.9c-0.1-0.5,0.3-1,0.8-1.1l2.5-0.3c2-0.3,4.1-0.1,6.1,0.4l1.3,0.3c0.5,0.1,0.8,0.7,0.7,1.2
								S29.8,28.1,29.4,28.1z"/>
							<path id="Path_13_" class="st1" d="M27.1,50c-0.5,0-1-0.4-1-1V32.6l-3.3-2.2l-4.1-1.5c-0.5-0.2-0.8-0.8-0.6-1.3
								s0.8-0.8,1.3-0.6l4.2,1.6c0.1,0,0.1,0.1,0.2,0.1l3.8,2.5c0.3,0.2,0.4,0.5,0.4,0.8v17C28.1,49.5,27.6,50,27.1,50z"/>
							<path id="Path_14_" class="st1" d="M21.9,34.9c-0.5,0-0.9-0.3-1-0.8s0.3-1.1,0.8-1.2l5.2-1c0.5-0.1,1,0.3,1.1,0.8
								s-0.3,1.1-0.8,1.2l-5.2,1C22,34.8,21.9,34.9,21.9,34.9z"/>
						</g>
						<path id="Path_15_" class="st1" d="M50,77h-5.7c-0.5,0-1-0.4-1-1V48.1c0-0.5,0.4-1,1-1c0.5,0,1,0.4,1,1V75h3.8V52.7
							c0-0.5,0.4-1,1-1c0.5,0,1,0.4,1,1V76C51,76.6,50.6,77,50,77z"/>
						<path id="Path_16_" class="st1" d="M33,77h-6c-0.6,0-1-0.5-1-1V46.9c0-0.6,0.4-1,1-1s1,0.5,1,1V75h4V51.7c0-0.6,0.4-1,1-1
							s1,0.5,1,1V76C34,76.5,33.6,77,33,77z"/>
						<path id="Path_17_" class="st1" d="M39,77h-6c-0.6,0-1-0.5-1-1V51.7c0-0.6,0.4-1,1-1s1,0.5,1,1V75h4V46.9c0-0.6,0.4-1,1-1
							s1,0.5,1,1V76C40,76.5,39.6,77,39,77z"/>
						<path id="Path_18_" class="st1" d="M21.8,77h-6c-0.6,0-1-0.5-1-1V51.7c0-0.6,0.4-1,1-1s1,0.5,1,1V75h4V46.9c0-0.6,0.4-1,1-1
							s1,0.5,1,1V76C22.8,76.5,22.3,77,21.8,77z"/>
					</g>
				</g>
			</g>
		</g>
	</g>
</g>
</svg>
