<?xml version="1.0" encoding="utf-8"?>
<!-- Generator: Adobe Illustrator 24.0.1, SVG Export Plug-In . SVG Version: 6.00 Build 0)  -->
<svg version="1.1" id="Layer_1" xmlns="http://www.w3.org/2000/svg" xmlns:xlink="http://www.w3.org/1999/xlink" x="0px" y="0px"
	 width="63px" height="77px" viewBox="0 0 63 77" style="enable-background:new 0 0 63 77;" xml:space="preserve">
<style type="text/css">
	.st0{fill:#F26A58;}
	.st1{fill:#FADA8F;}
	.st2{fill:#A4C8E5;}
	.st3{fill:#255DA8;}
</style>
<title>ICON-CMYK_HighApp_01</title>
<desc>Created with Sketch.</desc>
<g id="Page-1">
	<g id="_x32_019_x5F_Q4_x5F_MOCK-Home-Desktop_x5F_05" transform="translate(-472.000000, -1103.000000)">
		<g id="BLOCK-WHY-SCRATCHPAY" transform="translate(1.000000, 936.000000)">
			<g id="ICON-highest-approvals" transform="translate(401.000000, 167.000000)">
				<g id="ICON-CMYK_HighApp_01" transform="translate(70.000000, 0.000000)">
					<g id="BASE" transform="translate(1.265000, 1.265000)">
						<polygon id="Path" class="st0" points="8.5,6.5 0.2,17.3 5.6,17.5 5.1,31.9 12.3,31.9 12.2,17.5 16.6,17.6 						"/>
						<path id="Path_1_" class="st0" d="M52.4,6.5l-7.6,10.8h3.9v14.6c0,0,6.7,0.5,7.2,0c0.5-0.5,0.5-14.3,0.5-14.3l4.1-0.4
							L52.4,6.5z"/>
						<circle id="Oval" class="st1" cx="30.5" cy="29.3" r="4.8"/>
						<path id="Path_2_" class="st1" d="M26.7,36.3c0,0-5.9,0.6-5.9,5.8l-0.1,12.3c0,0,3,2.4,4.3,0V75l11-0.1V54.4
							c0,0,1.4,2.3,4.3-0.6c0.2-0.2,0-12.7,0-13s-1.1-4.1-6.4-4.7l-3.7,3.7L26.7,36.3z"/>
						<path id="Path_3_" class="st2" d="M26.7,36.3c0,0-5.9,0.9-5.9,5.8v5.6h4v26.8h10.8V47.8H40v-7c0,0-0.4-4.1-6-4.7l-3.7,3.7
							L26.7,36.3z"/>
					</g>
					<g id="OUTLINE">
						<g id="Group">
							<path id="Path_4_" class="st3" d="M31.8,77h-5.3c-0.5,0-0.9-0.4-0.9-0.9V50.3c0-0.5,0.4-0.9,0.9-0.9s0.9,0.4,0.9,0.9v24.9
								h3.5V54.6c0-0.5,0.4-0.9,0.9-0.9s0.9,0.4,0.9,0.9v21.5C32.7,76.6,32.3,77,31.8,77z"/>
							<path id="Path_5_" class="st3" d="M39.4,57.9c-1.7,0-3.1-1.4-3.1-3.1v-8.7c0-0.5,0.4-0.9,0.9-0.9s0.9,0.4,0.9,0.9v8.7
								c0,0.7,0.6,1.3,1.3,1.3s1.3-0.6,1.3-1.3V43.6c0-2.8-2.1-5-4.9-5.2l-3.4,3.4c-0.3,0.3-0.9,0.3-1.3,0l-3.4-3.4
								c-2.7,0.2-4.9,2.4-4.9,5.2v11.2c0,0.7,0.6,1.3,1.3,1.3s1.3-0.6,1.3-1.3v-8.7c0-0.5,0.4-0.9,0.9-0.9s0.9,0.4,0.9,0.9v8.7
								c0,1.7-1.4,3.1-3.1,3.1S21,56.5,21,54.8V43.6c0-3.9,3.1-7,7-7c0.2,0,0.5,0.1,0.6,0.3l3.1,3.1l3.1-3.1
								c0.2-0.2,0.4-0.3,0.6-0.3c3.9,0,7,3.1,7,7v11.2C42.5,56.5,41.1,57.9,39.4,57.9z"/>
							<path id="Path_6_" class="st3" d="M37.1,77h-5.3c-0.5,0-0.9-0.4-0.9-0.9V54.6c0-0.5,0.4-0.9,0.9-0.9s0.9,0.4,0.9,0.9v20.6
								h3.5V50.3c0-0.5,0.4-0.9,0.9-0.9s0.9,0.4,0.9,0.9v25.8C38,76.6,37.6,77,37.1,77z"/>
							<path id="Shape" class="st3" d="M31.8,36c-2.9,0-5.3-2.4-5.3-5.3s2.4-5.3,5.3-5.3s5.3,2.4,5.3,5.3S34.7,36,31.8,36z
								 M31.8,27.2c-1.9,0-3.5,1.6-3.5,3.5c0,1.9,1.6,3.5,3.5,3.5c1.9,0,3.5-1.6,3.5-3.5S33.7,27.2,31.8,27.2z"/>
							<path id="Path_7_" class="st3" d="M50.1,33.3c-0.5,0-0.9-0.4-0.9-0.9v-3.6c0-0.5,0.4-0.9,0.9-0.9s0.9,0.4,0.9,0.9v3.6
								C51,32.9,50.6,33.3,50.1,33.3z"/>
							<path id="Path_8_" class="st3" d="M50.1,41.8c-0.5,0-0.9-0.4-0.9-0.9v-3.6c0-0.5,0.4-0.9,0.9-0.9s0.9,0.4,0.9,0.9v3.6
								C51,41.4,50.6,41.8,50.1,41.8z"/>
							<path id="Path_9_" class="st3" d="M57.3,29.7c-0.5,0-0.9-0.4-0.9-0.9V18.7c0-0.5,0.4-0.9,0.9-0.9H60l-6.3-8.6l-6.3,8.6h2.7
								c0.5,0,0.9,0.4,0.9,0.9v10.1c0,0.5-0.4,0.9-0.9,0.9s-0.9-0.4-0.9-0.9v-9.1h-3.6c-0.3,0-0.6-0.2-0.8-0.5s-0.1-0.7,0.1-0.9
								L53,7.1c0.2-0.2,0.4-0.4,0.7-0.4s0.6,0.1,0.7,0.4l8.1,11.1c0.2,0.3,0.2,0.6,0.1,0.9c-0.2,0.3-0.5,0.5-0.8,0.5h-3.6v9.1
								C58.2,29.3,57.8,29.7,57.3,29.7z"/>
							<path id="Path_10_" class="st3" d="M57.3,41.8c-0.5,0-0.9-0.4-0.9-0.9v-3.6c0-0.5,0.4-0.9,0.9-0.9s0.9,0.4,0.9,0.9v3.6
								C58.2,41.4,57.8,41.8,57.3,41.8z"/>
							<path id="Path_11_" class="st3" d="M57.3,33.3c-0.5,0-0.9-0.4-0.9-0.9v-3.6c0-0.5,0.4-0.9,0.9-0.9s0.9,0.4,0.9,0.9v3.6
								C58.2,32.9,57.8,33.3,57.3,33.3z"/>
							<path id="Path_12_" class="st3" d="M6.3,33.3c-0.5,0-0.9-0.4-0.9-0.9v-3.6c0-0.5,0.4-0.9,0.9-0.9s0.9,0.4,0.9,0.9v3.6
								C7.2,32.9,6.8,33.3,6.3,33.3z"/>
							<path id="Path_13_" class="st3" d="M6.3,41.8c-0.5,0-0.9-0.4-0.9-0.9v-3.6c0-0.5,0.4-0.9,0.9-0.9s0.9,0.4,0.9,0.9v3.6
								C7.2,41.4,6.8,41.8,6.3,41.8z"/>
							<path id="Path_14_" class="st3" d="M9.9,37C9.4,37,9,36.6,9,36.1v-3.6c0-0.5,0.4-0.9,0.9-0.9s0.9,0.4,0.9,0.9v3.6
								C10.8,36.6,10.4,37,9.9,37z"/>
							<path id="Path_15_" class="st3" d="M9.9,45.5c-0.5,0-0.9-0.4-0.9-0.9V41c0-0.5,0.4-0.9,0.9-0.9s0.9,0.4,0.9,0.9v3.6
								C10.8,45.1,10.4,45.5,9.9,45.5z"/>
							<path id="Path_16_" class="st3" d="M53.7,37c-0.5,0-0.9-0.4-0.9-0.9v-3.6c0-0.5,0.4-0.9,0.9-0.9s0.9,0.4,0.9,0.9v3.6
								C54.6,36.6,54.2,37,53.7,37z"/>
							<path id="Path_17_" class="st3" d="M53.7,45.5c-0.5,0-0.9-0.4-0.9-0.9V41c0-0.5,0.4-0.9,0.9-0.9s0.9,0.4,0.9,0.9v3.6
								C54.6,45.1,54.2,45.5,53.7,45.5z"/>
							<path id="Path_18_" class="st3" d="M13.5,29.7c-0.5,0-0.9-0.4-0.9-0.9V18.7c0-0.5,0.4-0.9,0.9-0.9h2.7L9.9,9.2l-6.3,8.6h2.7
								c0.5,0,0.9,0.4,0.9,0.9v10.1c0,0.5-0.4,0.9-0.9,0.9s-0.9-0.4-0.9-0.9v-9.1H1.8c-0.3,0-0.6-0.2-0.8-0.5s-0.1-0.7,0.1-0.9
								l8-11.2c0.3-0.5,1.1-0.5,1.5,0l8.1,11.1c0.2,0.3,0.2,0.6,0.1,0.9c-0.2,0.3-0.5,0.5-0.8,0.5h-3.6v9.1
								C14.4,29.3,14,29.7,13.5,29.7z"/>
							<path id="Path_19_" class="st3" d="M13.5,41.8c-0.5,0-0.9-0.4-0.9-0.9v-3.6c0-0.5,0.4-0.9,0.9-0.9s0.9,0.4,0.9,0.9v3.6
								C14.4,41.4,14,41.8,13.5,41.8z"/>
							<path id="Path_20_" class="st3" d="M13.5,33.3c-0.5,0-0.9-0.4-0.9-0.9v-3.6c0-0.5,0.4-0.9,0.9-0.9s0.9,0.4,0.9,0.9v3.6
								C14.4,32.9,14,33.3,13.5,33.3z"/>
							<path id="Path_21_" class="st3" d="M61.8,77h-60c-0.5,0-0.9-0.4-0.9-0.9s0.4-0.9,0.9-0.9h60c0.5,0,0.9,0.4,0.9,0.9
								S62.3,77,61.8,77z"/>
						</g>
					</g>
				</g>
			</g>
		</g>
	</g>
</g>
</svg>
