<?xml version="1.0" encoding="UTF-8"?>
<svg width="279px" height="171px" viewBox="0 0 279 171" version="1.1" xmlns="http://www.w3.org/2000/svg" xmlns:xlink="http://www.w3.org/1999/xlink">
    <!-- Generator: Sketch 61.2 (89653) - https://sketch.com -->
    <title>ART_Lockup_Take5-RGB_01</title>
    <desc>Created with Sketch.</desc>
    <defs>
        <rect id="path-1" x="0.136643265" y="0.618857143" width="148.710973" height="88.8685714"></rect>
    </defs>
    <g id="Page-1" stroke="none" stroke-width="1" fill="none" fill-rule="evenodd">
        <g id="2019_Q4_MOCK-Home-Desktop_05" transform="translate(-124.000000, -652.000000)">
            <g id="BLOCK-TAKE-5" transform="translate(-2.000000, 563.000000)">
                <g id="ART_Lockup_Take5-RGB_01" transform="translate(126.000000, 89.000000)">
                    <g id="Group" transform="translate(0.000000, 77.000000)">
                        <line x1="0.325570663" y1="89.4606198" x2="32.6670446" y2="89.4606198" id="Path" stroke="#F26E56" stroke-width="8.334"></line>
                        <g transform="translate(0.872844, 0.000000)" fill="#284196" fill-rule="nonzero">
                            <polygon id="Path" points="19.1240033 64.4787758 19.1240033 15.815011 0.507122132 15.815011 0.507122132 2.60589231 54.4270356 2.60589231 54.4270356 15.815011 35.8092816 15.815011 35.8092816 64.4796396 19.1240033 64.4796396"></polygon>
                            <path d="M99.2126407,20.3332154 L99.2126407,64.4787758 L83.5808847,64.4787758 L83.5808847,58.4827187 C82.2925675,60.5686418 80.4194451,62.2062857 77.9606447,63.3930593 C75.5018443,64.579833 72.808249,65.1740835 69.8816044,65.1740835 C66.0751334,65.1740835 62.6806447,64.2481582 59.6946467,62.3928527 C56.7086487,60.5392747 54.3816477,57.8893319 52.7127707,54.4421604 C51.0438938,50.9958527 50.2103281,47.0114374 50.2103281,42.493233 C50.2103281,37.9171582 51.0578593,33.8610527 52.7564129,30.326644 C54.4540937,26.7930989 56.7959331,24.0412352 59.7819311,22.0710527 C62.767929,20.1008703 66.1336139,19.116211 69.8807315,19.116211 C72.8073761,19.116211 75.4861331,19.7398286 77.9161297,20.9844725 C80.3443806,22.230844 82.2323413,23.8952637 83.5800118,25.9811868 L83.5800118,20.3323516 L99.2126407,20.3323516 L99.2126407,20.3332154 Z M81.2975258,50.5752132 C82.8188922,48.6629011 83.5808847,45.9127648 83.5808847,42.319622 C83.5808847,38.6686088 82.8188922,35.8752857 81.2975258,33.9336066 C79.7744137,31.9927912 77.6088888,31.0219516 74.7992052,31.0219516 C72.0462565,31.0219516 69.8816044,32.0212945 68.3008846,34.020844 C66.7201648,36.0186659 65.9302414,38.8430835 65.9302414,42.4940967 C65.9302414,46.0285055 66.6904882,48.7371824 68.2136002,50.6184 C69.7349666,52.5022088 71.9310411,53.4436813 74.800078,53.4436813 C77.6088888,53.4428176 79.7744137,52.4866615 81.2975258,50.5752132 Z" id="Shape"></path>
                            <polygon id="Path" points="158.224724 64.4787758 138.992488 64.4787758 123.799772 45.447211 123.799772 64.4787758 107.90529 64.4787758 107.90529 0.519105495 123.799772 0.519105495 123.799772 38.7558462 138.728889 20.419589 157.522085 20.419589 139.957853 41.5362132"></polygon>
                            <path d="M200.464244,43.970222 L172.449456,43.970222 C172.741858,47.3888901 173.7369,49.8514022 175.435454,51.3568945 C177.133135,52.8641143 179.620739,53.6164286 182.900012,53.6164286 C185.124891,53.6164286 187.348896,53.2553868 189.573774,52.5298484 C191.798653,51.8060374 193.81754,50.8066945 195.633055,49.5318198 L199.672575,59.9597077 C197.446824,61.5818044 194.754974,62.8566791 191.593535,63.7834681 C188.432095,64.7102571 185.270656,65.1732198 182.109216,65.1732198 C177.016174,65.1732198 172.595221,64.2472945 168.848976,62.391989 C165.101858,60.538411 162.232822,57.8884681 160.243611,54.4412967 C158.252655,50.994989 157.257613,46.9242 157.257613,42.2306571 C157.257613,37.7703231 158.209013,33.7884989 160.111812,30.2817297 C162.014611,26.7775516 164.64798,24.0395077 168.016283,22.070189 C171.381095,20.1008703 175.231208,19.1153473 179.564004,19.1153473 C183.778966,19.1153473 187.467603,20.0421363 190.629042,21.896578 C193.790482,23.7510198 196.218733,26.4018264 197.918159,29.8472703 C199.614967,33.2953055 200.465117,37.3073604 200.465117,41.8834352 L200.465117,43.970222 L200.464244,43.970222 Z M172.624897,36.6707868 L186.852248,36.6707868 C186.265697,32.1525824 183.983211,29.8921846 180.002172,29.8921846 C176.07874,29.8921846 173.620812,32.1525824 172.624897,36.6707868 Z" id="Shape"></path>
                            <path d="M267.907123,26.4165099 C270.950729,28.0973407 273.321372,30.4432484 275.019926,33.4550967 C276.716734,36.4678088 277.566884,39.9443473 277.566884,43.8829846 C277.566884,48.1714352 276.527327,51.921778 274.449959,55.1366044 C272.370846,58.3522945 269.413651,60.8286264 265.580122,62.5664637 C261.744848,64.3051648 257.281125,65.1740835 252.188083,65.1740835 C248.14769,65.1740835 244.136974,64.5660132 240.156807,63.3498725 C236.174894,62.1328681 232.984651,60.5401385 230.584331,58.569956 L235.678246,47.0123011 C241.063691,50.7203209 246.655127,52.5738989 252.451682,52.5738989 C255.72921,52.5738989 258.159206,51.921778 259.740799,50.6175363 C261.321518,49.3141582 262.111442,47.3016527 262.111442,44.5782923 C262.111442,41.9145297 261.277876,39.8726571 259.608999,38.451811 C257.940995,37.0326923 255.613994,36.3227011 252.627996,36.3227011 C250.987923,36.3227011 249.216923,36.598233 247.314997,37.1475692 C245.411325,37.6994967 243.640326,38.4077604 242.001998,39.2775429 L232.95672,39.2775429 L232.95672,2.60589231 L274.230875,2.60589231 L274.230875,14.9452286 L248.939359,14.9452286 L248.939359,25.5475912 C251.338806,24.4480549 254.207843,23.8961275 257.544724,23.8961275 C261.40793,23.8961275 264.861772,24.7374066 267.907123,26.4165099 Z" id="Path"></path>
                        </g>
                    </g>
                    <g id="Clipped" transform="translate(107.000000, 0.000000)">
                        <mask id="mask-2" fill="white">
                            <use xlink:href="#path-1"></use>
                        </mask>
                        <g id="SVGID_1_"></g>
                        <path d="M2.21171671,39.4765714 L2.21171671,30.1594286 C2.21521451,29.0357143 2.58598195,2.652 30.2746147,2.652 L98.1486667,2.652 C99.2941982,2.652 126.21069,3.01885714 126.21069,30.1594286 L126.21069,39.4765714 C126.21069,40.6002857 125.836425,66.984 98.1486667,66.984 L87.0728639,66.984 C86.6758629,66.984 86.2937276,67.1502857 86.025271,67.44 C79.3260979,74.6811429 68.6639106,83.724 54.7889884,87.4534286 C57.6598127,83.4128571 61.9533697,76.008 61.5791044,68.3031429 C61.5406286,67.566 60.9206424,66.984 60.1642419,66.984 L30.2746147,66.984 C29.132581,66.984 2.21171671,66.6162857 2.21171671,39.4765714 Z" id="Path" stroke="#264495" stroke-width="3.389" stroke-linecap="round" stroke-linejoin="round" mask="url(#mask-2)"></path>
                    </g>
                    <g id="Group" transform="translate(135.000000, 25.000000)" fill="#264495" fill-rule="nonzero">
                        <polygon id="Path" points="15.2943448 0.191102941 20.0561379 0.191102941 20.0561379 22.5163235 16.298069 22.5163235 4.79848276 8.28084559 4.79848276 22.5163235 0.0690114943 22.5163235 0.0690114943 0.191102941 3.79475862 0.191102941 15.2943448 14.3952941"></polygon>
                        <path d="M39.1033103,14.9601471 L28.2842299,14.9601471 C28.3698391,16.445 28.769931,17.5265074 29.4827586,18.2055147 C30.1947126,18.8853676 31.2525977,19.2244485 32.6572874,19.2244485 C33.4994023,19.2244485 34.3415172,19.0891544 35.1845057,18.816875 C36.0266207,18.5462868 36.804092,18.1480147 37.5169195,17.6254412 L38.8115402,20.8243015 C38.034069,21.4305882 37.067908,21.9058088 35.9130575,22.2508088 C34.7573333,22.5958088 33.5972414,22.7683088 32.4310345,22.7683088 C29.6662069,22.7683088 27.4962759,22.0309559 25.9203678,20.5579412 C24.3435862,19.0840809 23.5556322,17.0724265 23.5556322,14.5212868 C23.5556322,12.9121324 23.8954483,11.4746324 24.575954,10.2096324 C25.2555862,8.94547794 26.2112644,7.96290441 27.4421149,7.26275735 C28.6729655,6.56261029 30.0662989,6.21253676 31.6212414,6.21253676 C33.9318161,6.21253676 35.7558161,6.93889706 37.0958621,8.39161765 C38.4341609,9.84433824 39.1041839,11.8044118 39.1041839,14.2701471 L39.1041839,14.9601471 L39.1033103,14.9601471 Z M29.4993563,10.3195588 C28.9271724,10.8421324 28.5541609,11.6056985 28.382069,12.6085662 L34.8927356,12.6085662 C34.6332874,10.5597059 33.5858851,9.53569853 31.7505287,9.53569853 C30.8210575,9.53569853 30.0706667,9.79698529 29.4993563,10.3195588 Z" id="Shape"></path>
                        <polygon id="Path" points="63.9806437 6.61926471 68.7101149 6.61926471 62.0692874 22.5171691 57.9556782 22.5171691 54.229931 13.2985662 50.6666667 22.5171691 46.5198621 22.5171691 39.8790345 6.61926471 44.867954 6.61926471 48.8190805 16.8728676 52.7387586 6.61926471 56.0748966 6.61926471 60.0268966 16.9667279"></polygon>
                        <path d="M71.495908,15.3364338 L69.9418391,0.160661765 L75.9991264,0.191948529 L74.4773793,15.3364338 L71.495908,15.3364338 Z M70.3297011,17.4690074 L75.6103908,17.4690074 L75.6103908,22.5171691 L70.3297011,22.5171691 L70.3297011,17.4690074 Z" id="Shape"></path>
                    </g>
                </g>
            </g>
        </g>
    </g>
</svg>