<?xml version="1.0" encoding="UTF-8"?>
<svg width="38px" height="24px" viewBox="0 0 38 24" version="1.1" xmlns="http://www.w3.org/2000/svg" xmlns:xlink="http://www.w3.org/1999/xlink">
    <!-- Generator: Sketch 61.2 (89653) - https://sketch.com -->
    <title>ICON-quote-right-blue</title>
    <desc>Created with Sketch.</desc>
    <g id="Page-1" stroke="none" stroke-width="1" fill="none" fill-rule="evenodd">
        <g id="2019_Q4_MOCK-Home-Desktop_05" transform="translate(-240.000000, -2495.000000)" fill="#284197" fill-rule="nonzero">
            <g id="BLOCK-TESTIMONIAL" transform="translate(0.000000, 2298.000000)">
                <g id="Testimonial-Renee" transform="translate(156.000000, 162.000000)">
                    <g id="ICON-quote-right-blue" transform="translate(84.000000, 35.000000)">
                        <path d="M17,7.94859285 C17,3.55893962 13.4000749,0 8.95853935,0 C5.95066021,0 3.35971482,1.65141863 1.98085537,4.06878936 L1.96536926,4.01815763 C1.96536926,4.01815763 0.0724900696,6.67043604 0.0141193457,10.52198 L0.000420094173,10.503729 C0.000420094173,10.503729 -0.00315362362,10.7009572 0.0105456279,11.0241761 C0.0260317383,11.5823026 0.0909542782,12.1651562 0.196974573,12.7650833 C0.234498609,12.9911599 0.283935039,13.2354874 0.336945186,13.4845249 C0.345283861,13.5180831 0.348261959,13.5498752 0.356600634,13.5834334 C0.927204241,16.1680066 2.42816571,19.7869978 6.2597868,22.1284209 C6.33483488,22.176109 6.41166981,22.2184983 6.4873135,22.2644201 C6.97393474,22.5481933 7.49688878,22.8095943 8.05915371,23.0474457 C8.207463,23.1098522 8.34624237,23.1857998 8.49752976,23.2417302 C8.53743627,23.2570375 8.56959973,23.276466 8.61010187,23.2917732 L8.60295443,23.2711673 C9.9824095,23.7710084 11.4714586,24.0418293 13.0284083,23.99473 L12.8598479,18.588321 C10.5649255,18.6583812 8.52850198,17.5044488 7.34738825,15.7370481 C7.86795981,15.841844 8.40699557,15.8977744 8.95913497,15.8977744 C13.4000749,15.8971857 17,12.3382461 17,7.94859285 Z" id="Path"></path>
                        <path d="M38,7.94878784 C38,3.55902692 34.4000749,0 29.9585394,0 C26.9506602,0 24.3597148,1.65145914 22.9808554,4.06888918 L22.9653693,4.01825621 C22.9653693,4.01825621 21.0724901,6.67059968 21.0141193,10.5222381 L21.0004201,10.5039867 C21.0004201,10.5039867 20.9968464,10.7012197 21.0105456,11.0244465 C21.0260317,11.5825867 21.0909543,12.1654546 21.1969746,12.7653965 C21.2344986,12.9914786 21.283935,13.2358121 21.3369452,13.4848557 C21.3452839,13.5184148 21.348262,13.5502076 21.3566006,13.5837666 C21.9272042,16.1684032 23.4281657,19.7874832 27.2597868,22.1289638 C27.3348349,22.176653 27.4116698,22.2190434 27.4873135,22.2649663 C27.9739347,22.5487464 28.4968888,22.8101539 29.0591537,23.0480111 C29.207463,23.1104192 29.3462424,23.1863686 29.4975298,23.2423004 C29.5374363,23.257608 29.5695997,23.277037 29.6101019,23.2923446 L29.6035501,23.2711494 C30.9830051,23.7710028 32.4720542,24.0418304 34.0290039,23.9947299 L33.8604436,18.5881883 C31.5655211,18.6582502 29.5290976,17.5042894 28.3479839,15.7368454 C28.8685554,15.8416439 29.4075912,15.8975757 29.9597306,15.8975757 C34.4000749,15.8975757 38,12.3385488 38,7.94878784 Z" id="Path"></path>
                    </g>
                </g>
            </g>
        </g>
    </g>
</svg>