<?xml version="1.0" encoding="UTF-8"?>
<svg width="87px" height="77px" viewBox="0 0 87 77" version="1.1" xmlns="http://www.w3.org/2000/svg" xmlns:xlink="http://www.w3.org/1999/xlink">
    <!-- Generator: Sketch 61.2 (89653) - https://sketch.com -->
    <title>ICON-CMYK_Trust_01</title>
    <desc>Created with Sketch.</desc>
    <g id="Page-1" stroke="none" stroke-width="1" fill="none" fill-rule="evenodd">
        <g id="2019_Q4_MOCK-Home-Desktop_05" transform="translate(-210.000000, -1098.000000)" fill-rule="nonzero">
            <g id="BLOCK-WHY-SCRATCHPAY" transform="translate(1.000000, 936.000000)">
                <g id="ICON--risk-free" transform="translate(148.000000, 163.000000)">
                    <g id="ICON-CMYK_Trust_01" transform="translate(61.600000, 0.000000)">
                        <g id="Layer_2" transform="translate(0.000000, 18.700000)">
                            <polyline id="Path" fill="#A4C8E5" points="0.170188679 25.7928 11.4590943 0.2838 24.4249811 10.85865 23.5864906 12.92775 11.5205283 30.68505 9.42181132 30.96885 0.170188679 25.7928"></polyline>
                            <polyline id="Path" fill="#A4C8E5" points="72.1359245 1.44705 85.7410566 26.8158 74.844 33.0495 71.9067925 32.38785 60.2708679 11.90475 60.5099623 8.77635 72.1359245 1.44705"></polyline>
                            <path d="M23.276,14.20815 C23.8554717,14.20815 32.6587925,14.32365 32.6587925,14.32365 L38.2193962,13.17195 L59.9969057,13.05645 L71.8121509,30.2082 L67.7458868,36.05085 C67.7458868,36.05085 73.2018868,38.38065 70.0737358,42.6393 C70.0737358,42.6393 67.7575094,45.17205 62.3131321,41.25825 C62.3131321,41.25825 63.1233962,44.02035 61.7336604,45.40305 C61.7336604,45.40305 60.8071698,48.51165 54.8995472,45.7479 C54.8995472,45.7479 55.9422642,49.43235 53.8568302,50.23755 C53.8568302,50.23755 52.5833208,52.7703 45.6329811,48.39615 C45.6329811,48.39615 46.5976604,56.1858 39.1840755,52.9617 C39.1840755,52.9617 33.3146415,58.79445 32.2337358,50.96685 C32.2337358,50.96685 24.974566,54.26685 26.1335094,47.05305 C26.1335094,47.05305 21.190566,48.20475 21.7318491,42.0651 C21.7318491,42.0651 15.5535849,43.2168 18.3330566,36.53925 C18.3330566,36.53925 12.2328302,29.4789 12.6180377,29.5548 C13.0049057,29.634 23.276,14.20815 23.276,14.20815 Z" id="Path" fill="#FADA8F"></path>
                        </g>
                        <g id="Layer_1">
                            <g id="Group" transform="translate(0.000000, 18.278723)" fill="#255DA8">
                                <path d="M67.5748679,45.5605957 C66.6483774,45.5605957 65.7301887,45.2930617 64.9431698,44.7795957 L49.7806038,34.8841596 C49.2343396,34.5285553 49.0799245,33.7957447 49.4369057,33.247383 C49.7922264,32.6990213 50.5244528,32.544483 51.0723774,32.9034106 L66.2349434,42.7988468 C66.809434,43.1743915 67.4935094,43.2890489 68.1593208,43.1245404 C68.8251321,42.9583702 69.374717,42.5362979 69.7084528,41.9347617 C70.3360755,40.8014809 69.9691321,39.3707553 68.8716226,38.6794872 L47.8462642,25.4357213 C46.9147925,24.8491404 45.8405283,24.5384021 44.7396981,24.5384021 L34.8986415,24.5384021 L34.8986415,27.0791447 C34.8986415,29.5949617 32.8530566,31.640517 30.3409057,31.640517 C27.8270943,31.640517 25.7831698,29.5933 25.7831698,27.0791447 L25.7831698,19.5250468 C25.7831698,18.3352681 26.4788679,17.2385447 27.5547925,16.7300638 L36.1904151,12.6638787 C36.3481509,12.5907638 36.5191698,12.550883 36.6935094,12.550883 L60.2708679,12.550883 C60.9233962,12.550883 61.4530566,13.080966 61.4530566,13.7340149 C61.4530566,14.3870638 60.9233962,14.9171468 60.2708679,14.9171468 L36.9558491,14.9171468 L28.5593208,18.8703362 C28.3069434,18.9899787 28.1442264,19.2458809 28.1442264,19.5250468 L28.1442264,27.0791447 C28.1442264,28.2905255 29.1288302,29.2759149 30.3392453,29.2759149 C31.5496604,29.2759149 32.5342642,28.2905255 32.5342642,27.0791447 L32.5342642,23.3569319 C32.5342642,22.703883 33.0639245,22.1738 33.7164528,22.1738 L44.7396981,22.1738 C46.2871698,22.1738 47.7964528,22.609166 49.1064906,23.4350319 L70.1318491,36.6804596 C72.2886792,38.0397319 73.0109434,40.8513319 71.777283,43.0829979 C71.1330566,44.2478511 70.0222642,45.1003043 68.7321509,45.4226745 C68.3486038,45.5140681 67.9617358,45.5605957 67.5748679,45.5605957 Z" id="Path"></path>
                                <path d="M58.7997736,49.0019809 C57.8118491,49.0019809 56.8455094,48.7095213 56.0053585,48.1445426 L45.3042264,40.9460489 C44.7629434,40.5821362 44.6184906,39.8460021 44.9821132,39.3042872 C45.3473962,38.7609106 46.081283,38.6180043 46.622566,38.981917 L57.3236981,46.1804106 C57.9230943,46.5842043 58.6436981,46.7237872 59.3510189,46.5792191 C60.06,46.4329894 60.6643774,46.0159021 61.0562264,45.4060574 C61.8449057,44.1763979 61.4912453,42.5263277 60.2675472,41.7270489 L50.542717,35.3793468 C49.9964528,35.0237426 49.8420377,34.2909319 50.1990189,33.7425702 C50.556,33.1958702 51.286566,33.0396702 51.8344906,33.3985979 L61.5593208,39.7463 C63.8672453,41.2518021 64.5330566,44.3641702 63.0453585,46.6839064 C62.3081509,47.8321426 61.1658113,48.616466 59.8308679,48.8939702 C59.4871698,48.9670851 59.1418113,49.0019809 58.7997736,49.0019809 Z" id="Path"></path>
                                <path d="M51.462566,53.2443064 C50.5360755,53.2443064 49.601283,52.9884043 48.7744151,52.4549979 L41.4222642,47.7158234 C40.8726792,47.3618809 40.7149434,46.6307319 41.0686038,46.0807085 C41.4222642,45.5306851 42.1528302,45.3728234 42.7024151,45.726766 L50.054566,50.4659404 C51.2068679,51.2087213 52.7510189,50.931217 53.5729057,49.8344936 C54.0095849,49.2528979 54.1822642,48.538366 54.0610566,47.8205106 C53.9398491,47.1026553 53.5413585,46.4845021 52.9386415,46.0790468 L48.1434717,42.853683 C47.6021887,42.4897702 47.4577358,41.7536362 47.8213585,41.2119213 C48.1866415,40.6685447 48.9205283,40.5273 49.4618113,40.8895511 L54.2569811,44.1149149 C55.4026415,44.8859447 56.161434,46.0607681 56.3922264,47.4250255 C56.6230189,48.789283 56.2926038,50.1485553 55.4624151,51.2535872 C54.4910943,52.5513766 52.9867925,53.2443064 51.462566,53.2443064 Z" id="Path"></path>
                                <path d="M42.473283,56.2104447 C41.6049057,56.2104447 40.7282264,55.9778064 39.9412075,55.4942511 L39.142566,55.0023872 C38.5863396,54.6600766 38.4136604,53.9305894 38.7556981,53.3755809 C39.0977358,52.8205723 39.8249811,52.6460936 40.3812075,52.9884043 L41.1781887,53.4802681 C42.2889811,54.1648894 43.7517736,53.8691064 44.5072453,52.8039553 C44.9040755,52.2439617 45.0518491,51.5643255 44.9223396,50.8913362 C44.7928302,50.2166851 44.4043019,49.6417362 43.8264906,49.2695149 L42.0233208,48.1079851 C41.4753962,47.7540426 41.316,47.0228936 41.6696604,46.4728702 C42.0233208,45.9245085 42.7555472,45.7649851 43.3034717,46.1189277 L45.1066415,47.2804574 C46.2323774,48.0066213 46.9895094,49.1299319 47.2435472,50.4443383 C47.4959245,51.7587447 47.2086792,53.0831213 46.433283,54.1748596 C45.4968302,55.4959128 43.9991698,56.2104447 42.473283,56.2104447 Z" id="Path"></path>
                                <path d="M35.7138868,57.2789191 C34.7209811,57.2789191 33.7230943,56.9532255 32.8962264,56.2885447 C31.9232453,55.505883 31.3304906,54.3892191 31.2275472,53.1429426 C31.1246038,51.896666 31.5280755,50.696917 32.3599245,49.7663638 L32.7301887,49.3526 C34.3274717,47.5662702 37.0421887,47.3436021 38.9101132,48.8491043 L38.174566,49.7746723 L38.9150943,48.8540894 C39.881434,49.631766 40.4891321,50.7883106 40.5821132,52.0262787 C40.6750943,53.2642468 40.2483774,54.4988915 39.4098868,55.4128277 L39.0346415,55.8216064 C38.1546415,56.7853936 36.9375849,57.2789191 35.7138868,57.2789191 Z M36.0824906,50.2216702 C35.494717,50.2216702 34.9119245,50.4642787 34.4918491,50.9328787 L34.1215849,51.3466426 C33.7264151,51.7886553 33.5354717,52.3586191 33.5836226,52.9518468 C33.6317736,53.5434128 33.9140377,54.0751574 34.377283,54.445717 C35.2556226,55.1502787 36.5357736,55.0539 37.2962264,54.2247106 L37.6714717,53.8159319 C38.0766038,53.3755809 38.2741887,52.8022936 38.2293585,52.2057426 C38.1845283,51.6091915 37.9022642,51.0741234 37.4373585,50.6985787 C37.0338868,50.3778702 36.5556981,50.2216702 36.0824906,50.2216702 Z" id="Shape"></path>
                                <path d="M29.5190189,54.2047702 C28.5095094,54.2047702 27.4950189,53.8674447 26.6548679,53.1761766 C25.6984906,52.3901915 25.1173585,51.2785128 25.0177358,50.0438681 C24.9181132,48.8092234 25.3149434,47.6194447 26.1335094,46.6905532 L30.7775849,41.4246191 C32.3947925,39.5901 35.142717,39.3707553 37.0322264,40.9244468 C38.0533585,41.7652681 38.6344906,42.886917 38.7274717,44.1298702 C38.8204528,45.3728234 38.412,46.5675872 37.5768302,47.4931553 L32.8729811,52.7092383 C31.9830189,53.6979511 30.7543396,54.2047702 29.5190189,54.2047702 Z M34.1630943,42.2587936 C33.5670189,42.2587936 32.9775849,42.5063872 32.5492075,42.9899426 L27.9051321,48.2558766 C27.5149434,48.6978894 27.3256604,49.2661915 27.3738113,49.854434 C27.4203019,50.4426766 27.6992453,50.9727596 28.1541887,51.3483043 C29.0458113,52.0794532 30.3475472,51.9830745 31.1179623,51.1256362 L35.8218113,45.9095532 C36.2186415,45.4692021 36.414566,44.8992383 36.3697358,44.3060106 C36.326566,43.712783 36.049283,43.1777149 35.5893585,42.8005085 C35.129434,42.4216404 34.6446038,42.2587936 34.1630943,42.2587936 Z" id="Shape"></path>
                                <path d="M24.9264151,49.2794851 C23.9335094,49.2794851 22.9356226,48.9604383 22.0987925,48.304066 C21.1208302,47.5380213 20.5064906,46.4363128 20.3670189,45.2016681 C20.2275472,43.9670234 20.5812075,42.7556426 21.3632453,41.7918553 L22.9422642,39.8443404 C24.5179623,37.9001489 27.412,37.5644851 29.3878491,39.0949128 C30.4006792,39.8792362 31.0498868,41.057383 31.1710943,42.3319085 C31.2923019,43.606434 30.8755472,44.8876064 30.0287547,45.8480702 L28.3700377,47.729117 C27.4684528,48.7510638 26.2015849,49.2794851 24.9264151,49.2794851 Z M26.5552453,40.494066 C25.8877736,40.494066 25.225283,40.7815404 24.7786415,41.3332255 L23.1996226,43.2824021 C22.8210566,43.7510021 22.6483774,44.337583 22.7164528,44.9374574 C22.7845283,45.5356702 23.0817358,46.0707383 23.5566038,46.4429596 C24.4830943,47.1691234 25.8213585,47.0461574 26.6000755,46.1621319 L28.2587925,44.2810851 C28.6805283,43.8025149 28.8797736,43.1893468 28.82,42.5545766 C28.7602264,41.9198064 28.4480755,41.3548277 27.9449811,40.9643277 C27.5332075,40.6469426 27.0433962,40.494066 26.5552453,40.494066 Z" id="Shape"></path>
                                <path d="M20.3022642,44.309334 C19.4073208,44.309334 18.5057358,44.0285064 17.7303396,43.450234 C16.7606792,42.7273936 16.1380377,41.6489489 16.0018868,40.4741255 C15.8657358,39.2993021 16.2260377,38.1078617 16.9881509,37.202234 L17.7004528,36.3564277 C19.1815094,34.5983468 21.7716981,34.3141957 23.5997736,35.7100255 C24.5279245,36.4195723 25.1173585,37.448166 25.2584906,38.608034 C25.401283,39.7679021 25.0775094,40.9094915 24.3486038,41.821766 L23.6578868,42.6841894 C22.8077736,43.7526638 21.5624906,44.309334 20.3022642,44.309334 Z M20.9896604,37.1939255 C20.4367547,37.1939255 19.8904906,37.4298872 19.5069434,37.8835319 L18.7946415,38.7293383 C18.4459623,39.1431021 18.2882264,39.6665383 18.3496604,40.2032681 C18.4110943,40.7399979 18.6850566,41.213583 19.1184151,41.5359532 C19.9834717,42.1823553 21.1590189,42.0294787 21.8148679,41.2085979 L22.5039245,40.3461745 C22.8326792,39.9340723 22.9771321,39.4206064 22.9140377,38.8971702 C22.849283,38.3753957 22.5836226,37.9101191 22.1652075,37.5910723 C21.8132075,37.3235383 21.3997736,37.1939255 20.9896604,37.1939255 Z" id="Shape"></path>
                                <path d="M18.6036981,38.3022809 C18.2932075,38.3022809 17.9843774,38.1809766 17.7535849,37.9400298 L11.5205283,31.4627149 C11.1270189,31.0539362 11.0788679,30.4224894 11.4076226,29.9588745 L22.6234717,14.0796489 C22.8443019,13.7655872 23.2046038,13.5794766 23.5881509,13.5794766 L34.5034717,13.5794766 C35.156,13.5794766 35.6856604,14.1095596 35.6856604,14.7626085 C35.6856604,15.4156574 35.156,15.9457404 34.5034717,15.9457404 L24.1991698,15.9457404 L13.8998491,30.5271766 L19.4538113,36.2999298 C19.9070943,36.7701915 19.8921509,37.5196191 19.4222642,37.9716021 C19.1931321,38.1926085 18.8975849,38.3022809 18.6036981,38.3022809 Z" id="Path"></path>
                                <path d="M75.1544906,34.9107468 C73.8959245,34.9107468 72.6689057,34.3025638 71.9084528,33.1792532 C69.0559245,28.9618532 62.9822642,19.7892574 59.6150189,14.6961404 C58.4776604,12.9762787 58.8711698,10.6515574 60.5116226,9.40029574 L70.4821887,1.79468511 C71.0018868,1.3992 71.7424151,1.49890213 72.1375849,2.01901489 C72.5327547,2.53746596 72.4331321,3.28024681 71.913434,3.67573191 L61.9428679,11.2813426 C61.2903396,11.7798532 61.1342642,12.7054213 61.5858868,13.3900426 C64.9498113,18.4781745 71.0201509,27.6424617 73.8660377,31.8515532 C74.3409057,32.5544532 75.2756981,32.7488723 75.9946415,32.2985511 L84.1138868,27.1938021 C84.6667925,26.8448447 85.3973585,27.0126766 85.742717,27.5660234 C86.0897358,28.1193702 85.9239667,28.8488574 85.3707925,29.1961532 L77.2515472,34.3009021 C76.5956981,34.7130043 75.8701132,34.9107468 75.1544906,34.9107468 Z" id="Path"></path>
                                <path d="M10.1540377,32.9615702 C9.49486792,32.9615702 8.8290566,32.7954 8.21471698,32.4481043 L0.616830189,28.1492809 C0.0489811321,27.8269106 -0.150264151,27.1057319 0.170188679,26.5374298 C0.492301887,25.9691277 1.21124528,25.7680617 1.78075472,26.0904319 L9.37864151,30.3892553 C10.0826415,30.7880638 10.9659623,30.5869979 11.4308679,29.9239787 L22.8326792,13.6293277 C23.302566,12.9596617 23.1846792,12.0573574 22.5570566,11.5322596 L11.6184906,2.51420213 C11.1153962,2.0987766 11.0423396,1.35433404 11.457434,0.849176596 C11.8725283,0.344019149 12.6180377,0.27422766 13.1211321,0.687991489 L24.068,9.71269574 C25.6486792,11.0403957 25.9475472,13.3052957 24.7686792,14.9869383 L13.3668679,31.2815894 C12.6047547,32.3700043 11.3943396,32.9615702 10.1540377,32.9615702 Z" id="Path"></path>
                                <path d="M66.9040755,37.2254979 C66.6052075,37.2254979 66.3063396,37.1125021 66.0755472,36.8865106 C65.6106415,36.4295426 65.6023396,35.6801149 66.0606038,35.2148383 L71.0151698,30.1649255 C71.4717736,29.6979872 72.2206038,29.6913404 72.6855094,30.1499702 C73.1504151,30.6069383 73.158717,31.356366 72.7004528,31.8216426 L67.7458868,36.8715553 C67.5167547,37.1058553 67.2095849,37.2254979 66.9040755,37.2254979 Z" id="Path"></path>
                                <path d="M6.4829434,27.1240106 C6.25215094,27.1240106 6.01969811,27.0575426 5.8154717,26.9162979 C5.27750943,26.5474 5.13969811,25.811266 5.50830189,25.2728745 L11.3943396,16.6768894 C11.7629434,16.1384979 12.4984906,16.0005766 13.0364528,16.3694745 C13.5744151,16.7383723 13.7122264,17.4745064 13.3419623,18.0128979 L7.45592453,26.608883 C7.23011321,26.9445468 6.85984906,27.1240106 6.4829434,27.1240106 Z" id="Path"></path>
                                <path d="M77.4308679,28.3370532 C77.0373585,28.3370532 76.6504906,28.1409723 76.428,27.780383 L70.857434,18.8553809 C70.5120755,18.302034 70.6797736,17.5708851 71.2343396,17.2252511 C71.7872453,16.8779553 72.5178113,17.0474489 72.8631698,17.6024574 L78.4320755,26.5274596 C78.777434,27.0808064 78.6097358,27.8102936 78.0551698,28.1575894 C77.8609057,28.2788936 77.6450566,28.3370532 77.4308679,28.3370532 Z" id="Path"></path>
                            </g>
                            <path d="M47.3564528,20.3808234 C46.5561509,21.0239021 45.7076981,21.6619957 44.8061132,22.2984277 C44.7861887,22.3067362 44.7430189,22.3416319 44.6832453,22.3898213 C44.0257358,22.8899936 43.7733585,23.0727809 43.5923774,23.0727809 C43.5342642,23.0727809 43.4794717,23.0528404 43.4230189,23.0129596 C39.5277736,20.4273511 36.7250566,18.0162213 34.5931321,15.4256277 C33.5421132,14.1411319 32.1042264,12.1387809 31.2458113,9.88052766 C30.5401509,8.02108298 30.3674717,6.33777872 30.729434,4.86717234 C31.3869434,2.1835234 33.8675472,0.2277 36.6320755,0.2277 C38.7075472,0.2277 41.1051321,1.68999787 42.094717,3.55775106 C42.4649811,4.15264043 42.9182642,5.05992979 43.4379623,6.25469362 C43.4811321,6.34941064 43.6156226,6.34941064 43.6538113,6.25469362 C44.8675472,3.34505319 47.0443019,0.2277 50.5460377,0.2277 C52.8224151,0.2277 54.9543396,1.54875319 55.9771321,3.5826766 C57.2473208,6.10015532 56.5150943,8.92837234 55.2698113,11.334517 C55.2714717,11.3328553 51.2882264,17.7486872 47.3564528,20.3808234 Z" id="Path" stroke="#285EA7" stroke-width="1.375" fill="#F26A58" stroke-linecap="round" stroke-linejoin="round"></path>
                        </g>
                    </g>
                </g>
            </g>
        </g>
    </g>
</svg>